<svg xmlns="http://www.w3.org/2000/svg" width="1200" height="630" viewBox="0 0 1200 630" role="img" aria-labelledby="title desc">
  <title id="title">MoonScribe — Write worlds worth remembering</title>
  <desc id="desc">A quiet, private writing studio for novelists.</desc>
  <defs>
    <linearGradient id="bg" x1="0" y1="0" x2="1" y2="1">
      <stop offset="0" stop-color="#08090d"/>
      <stop offset="0.58" stop-color="#101522"/>
      <stop offset="1" stop-color="#21172b"/>
    </linearGradient>
    <radialGradient id="glow" cx="78%" cy="22%" r="55%">
      <stop offset="0" stop-color="#d6a64b" stop-opacity=".22"/>
      <stop offset="1" stop-color="#d6a64b" stop-opacity="0"/>
    </radialGradient>
    <linearGradient id="gold" x1="0" y1="0" x2="1" y2="1">
      <stop stop-color="#f2d18a"/>
      <stop offset="1" stop-color="#b9782d"/>
    </linearGradient>
    <filter id="soft" x="-30%" y="-30%" width="160%" height="160%">
      <feGaussianBlur stdDeviation="28"/>
    </filter>
  </defs>
  <rect width="1200" height="630" fill="url(#bg)"/>
  <rect width="1200" height="630" fill="url(#glow)"/>
  <circle cx="960" cy="118" r="135" fill="#e5c77d" opacity=".11" filter="url(#soft)"/>
  <g fill="#f4e5c0" opacity=".7">
    <circle cx="784" cy="96" r="2"/><circle cx="874" cy="176" r="3"/><circle cx="1042" cy="84" r="2"/><circle cx="1100" cy="222" r="2"/><circle cx="700" cy="190" r="2"/><circle cx="1004" cy="310" r="2"/>
  </g>
  <path d="M0 518 C180 458 282 544 450 492 S758 468 1200 526 V630 H0Z" fill="#07080b" opacity=".8"/>
  <g transform="translate(92 94)">
    <circle cx="64" cy="64" r="55" fill="#121a2b" stroke="#c9953e" stroke-width="2"/>
    <path d="M78 26c-29 8-42 26-42 48 0 25 18 43 43 49-14-11-21-26-21-43 0-21 8-39 20-54Z" fill="url(#gold)"/>
    <path d="M58 89c16-9 31-26 39-48" fill="none" stroke="#f5e8cd" stroke-width="3" stroke-linecap="round" opacity=".9"/>
    <path d="M60 86c10-5 22-12 33-25M56 76c9-5 18-11 27-20M53 66c7-5 14-10 21-17" fill="none" stroke="#f5e8cd" stroke-width="2" opacity=".6"/>
  </g>
  <text x="236" y="142" fill="#d6a64b" font-family="Arial, sans-serif" font-size="18" font-weight="700" letter-spacing="5">MOONSCRIBE</text>
  <text x="88" y="286" fill="#f5ecde" font-family="Georgia, 'Times New Roman', serif" font-size="76" font-weight="400">Write worlds</text>
  <text x="88" y="370" fill="#f5ecde" font-family="Georgia, 'Times New Roman', serif" font-size="76" font-weight="400">worth remembering.</text>
  <text x="92" y="430" fill="#c7c5c6" font-family="Arial, sans-serif" font-size="23">A quiet, private home for novels in progress.</text>
  <g transform="translate(92 500)">
    <rect width="256" height="50" rx="25" fill="#d6a64b"/>
    <text x="128" y="32" text-anchor="middle" fill="#15100a" font-family="Arial, sans-serif" font-size="16" font-weight="700" letter-spacing="1">FREE FOR WRITERS</text>
  </g>
  <g transform="translate(790 342)" opacity=".9">
    <rect width="290" height="184" rx="12" fill="#11151d" stroke="#c9953e" stroke-opacity=".45"/>
    <path d="M24 38h180M24 62h230M24 86h198M24 110h214M24 134h164" stroke="#c7c5c6" stroke-opacity=".25" stroke-width="5" stroke-linecap="round"/>
    <path d="M226 45l22 16-28 50-21-12Z" fill="url(#gold)" opacity=".9"/>
    <path d="M204 99l-16 22 27-10" fill="none" stroke="#f5ecde" stroke-width="3"/>
  </g>
  <path d="M88 588h1024" stroke="#c9953e" stroke-opacity=".34"/>
</svg>
